<svg version="1.1" id="Layer_1" xmlns="http://www.w3.org/2000/svg" xmlns:xlink="http://www.w3.org/1999/xlink" x="0px" y="0px"
	 width="100%" viewBox="0 0 553 484" enable-background="new 0 0 553 484" xml:space="preserve">
<path fill="#FEFFFF" opacity="1.000000" stroke="none" 
	d="
M382.000000,485.000000 
	C254.697220,485.000000 127.894447,485.000000 1.045835,485.000000 
	C1.045835,323.736115 1.045835,162.472183 1.045835,1.104139 
	C185.219452,1.104139 369.438965,1.104139 553.829224,1.104139 
	C553.829224,162.333191 553.829224,323.666565 553.829224,485.000000 
	C496.805511,485.000000 439.652740,485.000000 382.000000,485.000000 
M222.450119,160.941788 
	C204.790512,181.192337 187.130905,201.442871 168.581223,222.714081 
	C168.581223,219.547607 168.581207,217.769196 168.581207,215.990768 
	C168.581482,163.001022 168.590408,110.011269 168.552795,57.021545 
	C168.551163,54.721039 168.502090,52.302132 167.827423,50.140526 
	C164.459381,39.349415 160.894760,28.619305 157.355530,17.882164 
	C156.106064,14.091668 154.732483,10.342087 153.415573,6.573825 
	C146.236038,29.316919 133.385696,50.341408 137.552689,75.019745 
	C115.046593,75.019745 93.638062,75.019745 71.453583,75.019745 
	C73.416183,60.387318 71.266098,46.646286 65.994347,33.240017 
	C62.521107,24.407436 59.899448,15.239990 56.421803,4.797117 
	C51.934471,18.444654 47.879143,30.560587 43.990688,42.729843 
	C42.733852,46.663231 41.259583,50.699268 41.028492,54.753536 
	C40.498348,64.054466 40.574955,73.395538 40.576714,82.720291 
	C40.585075,127.043922 40.546947,171.368164 40.816051,215.690430 
	C40.853432,221.846970 39.492191,226.936493 35.844349,231.854523 
	C34.223793,234.039398 33.290165,237.262527 33.269958,240.023361 
	C33.080959,265.850311 32.966225,291.681549 33.282669,317.506012 
	C33.369984,324.631348 32.334812,330.918640 27.651453,336.463837 
	C22.925766,342.059143 21.767841,348.539001 21.848650,355.892883 
	C22.198353,387.716217 22.022655,419.545593 21.968803,451.372681 
	C21.961914,455.445190 21.548717,459.517029 21.322544,463.610962 
	C194.770523,463.610962 367.607330,463.610962 540.449890,463.610962 
	C540.554077,462.740906 540.662842,462.255768 540.662964,461.770630 
	C540.674683,417.279236 540.705139,372.787811 540.591553,328.296722 
	C540.586548,326.338043 539.663635,324.089539 538.488098,322.469574 
	C518.048340,294.301636 497.508301,266.206451 476.974976,238.106476 
	C471.319763,230.367325 465.615387,222.664078 459.613373,214.509323 
	C444.294312,235.437851 429.379639,255.813873 414.033905,276.778809 
	C365.249939,220.784866 316.735596,165.100418 267.768219,108.895958 
	C252.585068,126.330299 237.748810,143.366287 222.450119,160.941788 
z"/>
<path fill="#01236E" opacity="1.000000" stroke="none" 
	d="
M222.681335,160.672028 
	C237.748810,143.366287 252.585068,126.330299 267.768219,108.895958 
	C316.735596,165.100418 365.249939,220.784866 414.033905,276.778809 
	C429.379639,255.813873 444.294312,235.437851 459.613373,214.509323 
	C465.615387,222.664078 471.319763,230.367325 476.974976,238.106476 
	C497.508301,266.206451 518.048340,294.301636 538.488098,322.469574 
	C539.663635,324.089539 540.586548,326.338043 540.591553,328.296722 
	C540.705139,372.787811 540.674683,417.279236 540.662964,461.770630 
	C540.662842,462.255768 540.554077,462.740906 540.449890,463.610962 
	C367.607330,463.610962 194.770523,463.610962 21.322544,463.610962 
	C21.548717,459.517029 21.961914,455.445190 21.968803,451.372681 
	C22.022655,419.545593 22.198353,387.716217 21.848650,355.892883 
	C21.767841,348.539001 22.925766,342.059143 27.651453,336.463837 
	C32.334812,330.918640 33.369984,324.631348 33.282669,317.506012 
	C32.966225,291.681549 33.080959,265.850311 33.269958,240.023361 
	C33.290165,237.262527 34.223793,234.039398 35.844349,231.854523 
	C39.492191,226.936493 40.853432,221.846970 40.816051,215.690430 
	C40.546947,171.368164 40.585075,127.043922 40.576714,82.720291 
	C40.574955,73.395538 40.498348,64.054466 41.028492,54.753536 
	C41.259583,50.699268 42.733852,46.663231 43.990688,42.729843 
	C47.879143,30.560587 51.934471,18.444654 56.421803,4.797117 
	C59.899448,15.239990 62.521107,24.407436 65.994347,33.240017 
	C71.266098,46.646286 73.416183,60.387318 71.453583,75.019745 
	C93.638062,75.019745 115.046593,75.019745 137.552689,75.019745 
	C133.385696,50.341408 146.236038,29.316919 153.415573,6.573825 
	C154.732483,10.342087 156.106064,14.091668 157.355530,17.882164 
	C160.894760,28.619305 164.459381,39.349415 167.827423,50.140526 
	C168.502090,52.302132 168.551163,54.721039 168.552795,57.021545 
	C168.590408,110.011269 168.581482,163.001022 168.581207,215.990768 
	C168.581207,217.769196 168.581223,219.547607 168.581223,222.714081 
	C187.130905,201.442871 204.790512,181.192337 222.681335,160.672028 
M488.564697,426.500244 
	C488.564514,411.169922 488.519775,395.839478 488.575256,380.509338 
	C488.647430,360.556458 480.397003,344.941284 464.449493,333.097260 
	C460.969971,330.513092 458.442535,330.344574 454.839233,333.052979 
	C438.821259,345.092529 430.550293,360.738647 430.755829,380.965942 
	C430.992828,404.292297 430.811432,427.622864 430.811768,450.951599 
	C430.811798,452.741302 430.811768,454.531006 430.811768,456.561829 
	C450.194061,456.561829 469.099030,456.561829 488.564606,456.561829 
	C488.564606,446.738007 488.564606,437.119141 488.564697,426.500244 
M128.867020,366.853851 
	C125.543083,352.786652 117.560623,341.942841 106.168983,333.254028 
	C102.541603,330.487335 99.907082,330.305847 96.167709,333.157715 
	C80.428101,345.161652 72.060890,360.548584 72.313690,380.653931 
	C72.613197,404.473206 72.380066,428.299133 72.396446,452.122162 
	C72.397438,453.565674 72.562660,455.009094 72.650894,456.443298 
	C91.941574,456.443298 110.826378,456.443298 129.913101,456.443298 
	C129.913101,438.428467 130.029251,420.778046 129.872360,403.130035 
	C129.767395,391.319672 129.274551,379.512817 128.867020,366.853851 
M294.740356,287.453094 
	C294.740387,272.454010 294.267426,257.435822 294.873230,242.461258 
	C295.481079,227.436768 288.423737,217.353226 276.783844,209.099701 
	C270.477112,204.627762 265.221191,204.439880 258.871521,209.013321 
	C247.357864,217.306152 240.036819,227.080780 240.837509,242.326599 
	C241.684189,258.447754 241.027603,274.647888 241.027664,290.813507 
	C241.027664,293.246552 241.027664,295.679565 241.027664,298.143890 
	C259.182190,298.143890 276.774689,298.143890 294.739502,298.143890 
	C294.739502,294.703033 294.739502,291.567505 294.740356,287.453094 
M79.882454,188.338440 
	C80.519722,189.280380 81.128059,191.015549 81.798782,191.040009 
	C87.685364,191.254654 93.583061,191.164276 99.723495,191.164276 
	C99.723495,176.272812 100.094559,162.149139 99.566078,148.059204 
	C99.304031,141.072968 95.661377,135.187103 89.670433,130.875900 
	C83.321785,136.087952 79.975395,142.470001 79.937828,150.457062 
	C79.879959,162.758530 79.895210,175.060333 79.882454,188.338440 
M129.917267,177.491364 
	C129.916931,168.495041 130.076660,159.495010 129.868683,150.503494 
	C129.681702,142.419830 126.268799,135.864914 119.672729,130.877747 
	C112.710953,136.499100 109.829735,143.653030 109.794044,152.090134 
	C109.746834,163.252029 109.772675,174.414230 109.767403,185.576309 
	C109.766579,187.325607 109.767281,189.074890 109.767281,190.796112 
	C116.907158,190.796112 123.288437,190.796112 129.917145,190.796112 
	C129.917145,186.446136 129.917145,182.467010 129.917267,177.491364 
z"/>
<path fill="#FCFCFD" opacity="1.000000" stroke="none" 
	d="
M488.564636,427.000244 
	C488.564606,437.119141 488.564606,446.738007 488.564606,456.561829 
	C469.099030,456.561829 450.194061,456.561829 430.811768,456.561829 
	C430.811768,454.531006 430.811798,452.741302 430.811768,450.951599 
	C430.811432,427.622864 430.992828,404.292297 430.755829,380.965942 
	C430.550293,360.738647 438.821259,345.092529 454.839233,333.052979 
	C458.442535,330.344574 460.969971,330.513092 464.449493,333.097260 
	C480.397003,344.941284 488.647430,360.556458 488.575256,380.509338 
	C488.519775,395.839478 488.564514,411.169922 488.564636,427.000244 
z"/>
<path fill="#FBFCFD" opacity="1.000000" stroke="none" 
	d="
M128.911148,367.279114 
	C129.274551,379.512817 129.767395,391.319672 129.872360,403.130035 
	C130.029251,420.778046 129.913101,438.428467 129.913101,456.443298 
	C110.826378,456.443298 91.941574,456.443298 72.650894,456.443298 
	C72.562660,455.009094 72.397438,453.565674 72.396446,452.122162 
	C72.380066,428.299133 72.613197,404.473206 72.313690,380.653931 
	C72.060890,360.548584 80.428101,345.161652 96.167709,333.157715 
	C99.907082,330.305847 102.541603,330.487335 106.168983,333.254028 
	C117.560623,341.942841 125.543083,352.786652 128.911148,367.279114 
z"/>
<path fill="#FCFDFE" opacity="1.000000" stroke="none" 
	d="
M294.739929,287.942505 
	C294.739502,291.567505 294.739502,294.703033 294.739502,298.143890 
	C276.774689,298.143890 259.182190,298.143890 241.027664,298.143890 
	C241.027664,295.679565 241.027664,293.246552 241.027664,290.813507 
	C241.027603,274.647888 241.684189,258.447754 240.837509,242.326599 
	C240.036819,227.080780 247.357864,217.306152 258.871521,209.013321 
	C265.221191,204.439880 270.477112,204.627762 276.783844,209.099701 
	C288.423737,217.353226 295.481079,227.436768 294.873230,242.461258 
	C294.267426,257.435822 294.740387,272.454010 294.739929,287.942505 
z"/>
<path fill="#F7F8FB" opacity="1.000000" stroke="none" 
	d="
M79.880951,187.850220 
	C79.895210,175.060333 79.879959,162.758530 79.937828,150.457062 
	C79.975395,142.470001 83.321785,136.087952 89.670433,130.875900 
	C95.661377,135.187103 99.304031,141.072968 99.566078,148.059204 
	C100.094559,162.149139 99.723495,176.272812 99.723495,191.164276 
	C93.583061,191.164276 87.685364,191.254654 81.798782,191.040009 
	C81.128059,191.015549 80.519722,189.280380 79.880951,187.850220 
z"/>
<path fill="#FAFAFC" opacity="1.000000" stroke="none" 
	d="
M129.917206,177.989624 
	C129.917145,182.467010 129.917145,186.446136 129.917145,190.796112 
	C123.288437,190.796112 116.907158,190.796112 109.767281,190.796112 
	C109.767281,189.074890 109.766579,187.325607 109.767403,185.576309 
	C109.772675,174.414230 109.746834,163.252029 109.794044,152.090134 
	C109.829735,143.653030 112.710953,136.499100 119.672729,130.877747 
	C126.268799,135.864914 129.681702,142.419830 129.868683,150.503494 
	C130.076660,159.495010 129.916931,168.495041 129.917206,177.989624 
z"/>
</svg>